<svg id="Layer_2" data-name="Layer 2" xmlns="http://www.w3.org/2000/svg" viewBox="0 0 286.63 73.06">
    <g>
        <path fill="#FFF" d="m128.36,61.63h-17.23c-.41,0-.69-.21-.69-.69V18.89c0-.48.28-.69.69-.69h17.23c8.62,0,13.79,4.55,13.79,12.55v1.31c0,2.76-1.59,5.52-3.86,7.17-.41.34-.48.55,0,.9,2.28,1.65,3.86,4.69,3.86,7.38v1.45c0,7.58-5.1,12.68-13.79,12.68Zm4.27-30.88c0-2.21-1.79-4-4.27-4h-7.51c-.55,0-.76.28-.76.76v7.38c0,.48.21.76.76.76h7.51c2.55,0,4.27-1.72,4.27-3.93v-.97Zm0,16.75c0-2.21-1.79-3.93-4.27-3.93h-7.51c-.55,0-.76.28-.76.76v8c0,.48.21.69.76.69h7.51c2.34,0,4.27-1.72,4.27-3.93v-1.59Z"/>
        <path fill="#FFF" d="m156.11,61.63h-8.13c-.48,0-.69-.21-.69-.69V18.89c0-.48.21-.69.69-.69h8.13c.41,0,.69.21.69.69v42.05c0,.48-.28.69-.69.69Z"/>
        <path fill="#FFF" d="m189.3,61.63h-6.55c-.48,0-.62-.21-.69-.55l-.28-1.17c-.07-.21-.41-.28-.62-.14-1.65,1.17-3.79,1.86-5.93,1.86-7.93,0-12.89-4.69-12.89-12.2v-19.17c0-.48.28-.69.69-.69h8.27c.41,0,.69.21.69.69v19.17c0,2.27,1.65,3.93,4.14,3.93s4.34-1.65,4.34-3.93v-19.17c0-.48.28-.69.69-.69h8.13c.41,0,.69.21.69.69v30.68c0,.48-.28.69-.69.69Z"/>
        <path fill="#FFF" d="m210.36,61.63c-2.07,0-4-.62-5.52-1.86-.48-.34-.83-.14-.83.41v.97c0,.28-.21.48-.55.48h-6.89c-.41,0-.69-.21-.69-.69V18.89c0-.48.28-.69.69-.69h8.13c.34,0,.69.21.69.69v9.58c0,1.03-.21,3.03-.21,3.03,1.38-1.24,3.65-1.93,5.31-1.93,7.51,0,12.96,5.03,12.96,12.55v6.96c0,8-4.69,12.55-13.1,12.55Zm3.52-20.2c0-2.21-1.72-3.86-4.21-3.86s-4.27,1.65-4.27,3.86v8.27c0,2.27,1.86,4,4.27,4s4.21-1.72,4.21-4v-8.27Z"/>
        <path fill="#FFF" d="m253.48,61.63h-6.76c-.41,0-.69-.21-.76-.55l-.21-1.17c-.07-.21-.41-.28-.69-.07-1.45,1.17-3.52,1.79-5.38,1.79h-2.41c-5.93,0-10.34-3.52-10.34-9.38v-.69c0-5.79,4.89-9.1,10.96-9.1h6.07c.48,0,.69-.28.69-.76v-.34c0-2.21-1.59-3.93-4.14-3.93-2.34,0-3.93,1.1-4.9,3.52-.21.62-.62.76-1.03.55l-6.82-3.45c-.41-.21-.62-.97-.21-1.65.83-1.52,1.86-2.9,3.17-4.07,2.34-2.14,5.52-3.52,9.79-3.52,8.41,0,13.65,5.17,13.65,12.62v19.51c0,.48-.28.69-.69.69Zm-9.38-12.62h-5.86c-1.38,0-2.34.96-2.34,2.34,0,1.93.83,2.83,2.27,2.83h2.55c1.86,0,3.79-1.65,3.93-4.21,0-.21-.14-.96-.55-.96Z"/>
        <path fill="#FFF" d="m269.53,61.63h-8.13c-.48,0-.69-.21-.69-.69V18.89c0-.48.21-.69.69-.69h8.13c.41,0,.69.21.69.69v42.05c0,.48-.28.69-.69.69Z"/>
        <path fill="#FFF" d="m285.94,61.63h-8.13c-.48,0-.69-.21-.69-.69V18.89c0-.48.21-.69.69-.69h8.13c.41,0,.69.21.69.69v42.05c0,.48-.28.69-.69.69Z"/>
    </g>
    <circle fill="#00A3B6" cx="41.69" cy="37.57" r="35.49"/>
    <g>
        <path fill="#FFF" d="m15.83,39.21c-1.02.97-1.9,2.09-2.62,3.3-1.57,2.66-2.32,5.74-3.81,8.45-2.08,3.79-5.5,6.7-7.68,10.44-1.38,2.38-2.24,5.34-1.36,8.04.44,1.34,1.25,1.43,2.59,1.63,1.61.25,3.26.26,4.88.02.58-.08,1.24-.27,1.45-.81.58-1.45-2.54-1.8-2.76-3.34-.14-.96.94-1.6,1.84-1.96,4.11-1.63,8.22-3.27,12.33-4.9,2.64-1.05,5.4-2.19,7.14-4.43,7.85,4.09,17.87,3.64,25.33-1.13-1.32,2.24-4.88,2.63-5.74,5.09-.72,2.04.62,5.03-1.28,6.07-.33.18-.71.26-1,.48-.66.51-.6,1.59-.07,2.23s1.38.92,2.2,1.07c4.84.9,10.11-2.03,11.91-6.6.27-.68.47-1.4.39-2.13-.09-.9-.58-1.69-1-2.49-1.55-2.92-2.27-6.28-2.05-9.58.34,5.36,3.09,10.52,7.34,13.8,1.32,1.02,2.97,2.37,2.47,3.96-1.05-.64-2.53.38-2.61,1.61s.89,2.32,2.02,2.8,2.4.47,3.63.45c1.59-.02,3.18-.04,4.77-.07.74-.01,1.52-.03,2.16-.4.42-.24.75-.62,1.04-1,3.05-3.92,4.07-9.17,3.48-14.1-.58-4.93-2.64-9.59-5.21-13.84-1.08-1.79-2.28-3.58-2.68-5.63-.27-1.38-.16-2.8-.28-4.21-.29-3.55-2.11-6.95-4.89-9.17,2.99,1.74,5.33,3.72,5.96,8.13,1.56-1.54,1.63-4.32.17-5.94,4.09,1.33,9.01-1.81,9.52-6.09.04-.33.05-.69-.1-.99-.29-.56-1.04-.69-1.67-.68-1.67.02-3.34.51-4.76,1.39,2.17-1.95,3.21-2,4.89-1.9-.36-2.27-2.72-4.01-4.99-3.69-.75.11-1.5.41-2.25.3s-1.49-.89-1.16-1.58c.37-.79,1.53-.57,2.35-.29s2.07.26,2.2-.6c.05-.32-.1-.63-.26-.91-1.95-3.3-6.8-4.44-10.01-2.36,1.32-1.11,2.75-2.22,4.47-2.13C70.44,2.67,68.48-.01,65.17,0c-2.17,0-4.05,1.47-5.62,2.97-4.24,4.07-7.64,9.01-9.93,14.42,2.09-1,3.96-.8,5.44.28-4.39-.76-8.55,2.23-11.55,5.53s-5.6,7.19-9.56,9.22c-4.04,2.07-8.89,1.87-13.1,3.54-1.86.74-3.58,1.86-5.03,3.24Z"/>
        <path fill="#FFF" d="m21.82,60.61c-.07.06-.14.11-.2.17-.28.26-.39.53-.54,1.02-.16.49-.36,1.2-.53,1.89-.17.69-.3,1.38-.31,2.06,0,.68.11,1.36.31,1.88.19.51.45.86.81,1.17.35.31.8.57,2.03.65,1.24.08,3.27-.01,4.37-.14,1.1-.13,1.25-.3,1.29-.57.04-.28-.05-.66-.36-1.06-.31-.4-.85-.82-1.35-1.1-.5-.28-.97-.42-1.33-.5-.36-.07-.61-.07-.72-.26-.11-.19-.09-.57.02-.8.11-.23.32-.3.97-.34.65-.04,1.75-.05,2.8-.1,1.05-.05,2.04-.13,2.97-.31.93-.17,1.81-.44,2.7-.8.89-.36,1.8-.81,2.51-1.26.71-.45,1.23-.89,1.64-1.43.33-.42.6-.91.86-1.4-3.85.14-8.57-.37-11.6-2.66-.31.42-.65.79-1.12,1.16-1.19.95-2.87,1.71-4.26,2.32-.32.14-.64.28-.96.42h0Z"/>
    </g>
</svg>
