<svg width="84" height="74" viewBox="0 0 84 74" fill="none" xmlns="http://www.w3.org/2000/svg">
<path d="M41.7167 73.06C61.3173 73.06 77.2067 57.1706 77.2067 37.57C77.2067 17.9694 61.3173 2.08002 41.7167 2.08002C22.1162 2.08002 6.22675 17.9694 6.22675 37.57C6.22675 57.1706 22.1162 73.06 41.7167 73.06Z" fill="#00A3B6"/>
<path fill-rule="evenodd" clip-rule="evenodd" d="M15.8267 39.21C14.8067 40.18 13.9267 41.3 13.2067 42.51C11.6367 45.17 10.8867 48.25 9.39673 50.96C7.31673 54.75 3.89673 57.66 1.71673 61.4C0.336734 63.78 -0.523266 66.74 0.356734 69.44C0.796734 70.78 1.60673 70.87 2.94673 71.07C4.55673 71.32 6.20673 71.33 7.82673 71.09C8.40673 71.01 9.06673 70.82 9.27673 70.28C9.85673 68.83 6.73673 68.48 6.51673 66.94C6.37673 65.98 7.45673 65.34 8.35673 64.98C12.4667 63.35 16.5767 61.71 20.6867 60.08C23.3267 59.03 26.0867 57.89 27.8267 55.65C35.6767 59.74 45.6967 59.29 53.1567 54.52C51.8367 56.76 48.2767 57.15 47.4167 59.61C46.6967 61.65 48.0367 64.64 46.1367 65.68C45.8067 65.86 45.4267 65.94 45.1367 66.16C44.4767 66.67 44.5367 67.75 45.0667 68.39C45.5967 69.03 46.4467 69.31 47.2667 69.46C52.1067 70.36 57.3767 67.43 59.1767 62.86C59.4467 62.18 59.6467 61.46 59.5667 60.73C59.4767 59.83 58.9867 59.04 58.5667 58.24C57.0167 55.32 56.2967 51.96 56.5167 48.66C56.8567 54.02 59.6067 59.18 63.8567 62.46C65.1767 63.48 66.8267 64.83 66.3267 66.42C65.2767 65.78 63.7967 66.8 63.7167 68.03C63.6367 69.26 64.6067 70.35 65.7367 70.83C66.8667 71.31 68.1367 71.3 69.3667 71.28C70.9567 71.26 72.5467 71.24 74.1367 71.21C74.8767 71.2 75.6567 71.18 76.2967 70.81C76.7167 70.57 77.0467 70.19 77.3367 69.81C80.3867 65.89 81.4067 60.64 80.8167 55.71C80.2267 50.78 78.1767 46.12 75.6067 41.87C74.5267 40.08 73.3267 38.29 72.9267 36.24C72.6567 34.86 72.7667 33.44 72.6467 32.03C72.3567 28.48 70.5367 25.08 67.7567 22.86C70.7467 24.6 73.0867 26.58 73.7167 30.99C75.2767 29.45 75.3467 26.67 73.8867 25.05C77.9767 26.38 82.8967 23.24 83.4067 18.96C83.4467 18.63 83.4567 18.27 83.3067 17.97C83.0167 17.41 82.2667 17.28 81.6367 17.29C79.9667 17.31 78.2967 17.8 76.8767 18.68C79.0467 16.73 80.0867 16.68 81.7667 16.78C81.4067 14.51 79.0467 12.77 76.7767 13.09C76.0267 13.2 75.2767 13.5 74.5267 13.39C73.7767 13.28 73.0367 12.5 73.3667 11.81C73.7367 11.02 74.8967 11.24 75.7167 11.52C76.5367 11.8 77.7867 11.78 77.9167 10.92C77.9667 10.6 77.8167 10.29 77.6567 10.01C75.7067 6.71003 70.8567 5.57003 67.6467 7.65003C68.9667 6.54003 70.3967 5.43003 72.1167 5.52003C70.4367 2.67003 68.4767 -0.0099721 65.1667 2.78972e-05C62.9967 2.78972e-05 61.1167 1.47003 59.5467 2.97003C55.3067 7.04003 51.9067 11.98 49.6167 17.39C51.7067 16.39 53.5767 16.59 55.0567 17.67C50.6667 16.91 46.5067 19.9 43.5067 23.2C40.5067 26.5 37.9067 30.39 33.9467 32.42C29.9067 34.49 25.0567 34.29 20.8467 35.96C18.9867 36.7 17.2667 37.82 15.8167 39.2L15.8267 39.21Z" fill="#231F20"/>
<path fill-rule="evenodd" clip-rule="evenodd" d="M21.8168 60.61C21.7468 60.67 21.6768 60.72 21.6168 60.78C21.3368 61.04 21.2268 61.31 21.0768 61.8C20.9168 62.29 20.7168 63 20.5468 63.69C20.3768 64.38 20.2468 65.07 20.2368 65.75C20.2368 66.43 20.3468 67.11 20.5468 67.63C20.7368 68.14 20.9968 68.49 21.3568 68.8C21.7068 69.11 22.1568 69.37 23.3868 69.45C24.6268 69.53 26.6568 69.44 27.7568 69.31C28.8568 69.18 29.0068 69.01 29.0468 68.74C29.0868 68.46 28.9968 68.08 28.6868 67.68C28.3768 67.28 27.8368 66.86 27.3368 66.58C26.8368 66.3 26.3668 66.16 26.0068 66.08C25.6468 66.01 25.3968 66.01 25.2868 65.82C25.1768 65.63 25.1968 65.25 25.3068 65.02C25.4168 64.79 25.6268 64.72 26.2768 64.68C26.9268 64.64 28.0268 64.63 29.0768 64.58C30.1268 64.53 31.1168 64.45 32.0468 64.27C32.9768 64.1 33.8568 63.83 34.7468 63.47C35.6368 63.11 36.5468 62.66 37.2568 62.21C37.9668 61.76 38.4868 61.32 38.8968 60.78C39.2268 60.36 39.4968 59.87 39.7568 59.38C35.9068 59.52 31.1868 59.01 28.1568 56.72C27.8468 57.14 27.5068 57.51 27.0368 57.88C25.8468 58.83 24.1668 59.59 22.7768 60.2C22.4568 60.34 22.1368 60.48 21.8168 60.62V60.61Z" fill="#231F20"/>
</svg>
